# xmcd
#
# Track frame offsets:
#	150
#	14475
#	31797
#	47895
#	61344
#	76823
#	97527
#	131067
#	138943
#	148773
#	168026
#	187874
#	204972
#	223638
#	238254
#	250568
#	267738
#	282853
#
# Disc length: 3959
#
# Revision: 2
# Processed by: cddbd v1.5.1PL0 Copyright (c) Steve Scherf et al.
# Submitted via: EasyCDDAExtractor 7.0.6.1
# Normalized: r1:DSETVAR1
#
DISCID=f50f7512
DTITLE=Various Artist - El encanto de la guitarra Latina
DYEAR=2001
DGENRE=Instrumental
TTITLE0=Joan Manuel Serrat - Mediterráneo
TTITLE1=Joan Manuel Serrat - Penélope
TTITLE2=Joan Manuel Serrat - La mujer que yo quiero
TTITLE3=Joan Manuel Serrat - Lucía
TTITLE4=Joan Manuel Serrat - Cantares
TTITLE5=Joan Manuel Serrat - Qué va a ser de ti
TTITLE6=Joan Manuel Serrat - Romance de curro "El Palomo"
TTITLE7=Joan Manuel Serrat - Aquellas pequeñas cosas
TTITLE8=Joan Manuel Serrat - La Saeta
TTITLE9=Julio Iglesias - Lo mejor de tu vida
TTITLE10=Julio Iglesias - Que no se rompa la noche
TTITLE11=Julio Iglesias - No me vuelvo a enamorar
TTITLE12=Julio Iglesias - Por ella
TTITLE13=Julio Iglesias - De niña a mujer
TTITLE14=Julio Iglesias - A veces tú, a veces yo
TTITLE15=Julio Iglesias - Un hombre solo
TTITLE16=Julio Iglesias - Manuela
TTITLE17=Julio Iglesias - Quiero
EXTD=
EXTT0=
EXTT1=
EXTT2=
EXTT3=
EXTT4=
EXTT5=
EXTT6=
EXTT7=
EXTT8=
EXTT9=
EXTT10=
EXTT11=
EXTT12=
EXTT13=
EXTT14=
EXTT15=
EXTT16=
EXTT17=
PLAYORDER=
